<svg xmlns="http://www.w3.org/2000/svg" width="114.783" height="82.5" viewBox="0 0 114.783 82.5"><defs><style>.a{fill:#03428e;}.b{fill:#ffd100;}.c{fill:#b8bac0;}.d{fill:#8a8895;}.e{fill:#ff4f19;}.f{fill:#ff9500;}</style></defs><g transform="translate(0 0)"><path class="a" d="M105.815,72H8.967A8.978,8.978,0,0,0,0,80.967v64.565A8.978,8.978,0,0,0,8.967,154.5h96.848a8.978,8.978,0,0,0,8.967-8.967V80.967A8.978,8.978,0,0,0,105.815,72Z" transform="translate(0 -72)"/></g><g transform="translate(14.348 14.348)"><path class="b" d="M89.109,157.522H67.587A3.587,3.587,0,0,1,64,153.935V139.587A3.587,3.587,0,0,1,67.587,136H89.109a3.587,3.587,0,0,1,3.587,3.587v14.348A3.587,3.587,0,0,1,89.109,157.522Z" transform="translate(-64 -136)"/></g><g transform="translate(14.348 50.217)"><path class="c" d="M76.554,304.967H67.587A3.587,3.587,0,0,1,64,301.38v-1.793A3.587,3.587,0,0,1,67.587,296h8.967a3.587,3.587,0,0,1,3.587,3.587v1.793A3.587,3.587,0,0,1,76.554,304.967Z" transform="translate(-64 -296)"/><g transform="translate(23.315)"><path class="c" d="M180.554,304.967h-8.967A3.587,3.587,0,0,1,168,301.38v-1.793A3.587,3.587,0,0,1,171.587,296h8.967a3.587,3.587,0,0,1,3.587,3.587v1.793A3.587,3.587,0,0,1,180.554,304.967Z" transform="translate(-168 -296)"/></g><g transform="translate(46.63)"><path class="c" d="M284.554,304.967h-8.967A3.587,3.587,0,0,1,272,301.38v-1.793A3.587,3.587,0,0,1,275.587,296h8.967a3.587,3.587,0,0,1,3.587,3.587v1.793A3.587,3.587,0,0,1,284.554,304.967Z" transform="translate(-272 -296)"/></g><g transform="translate(69.946)"><path class="c" d="M388.554,304.967h-8.967A3.587,3.587,0,0,1,376,301.38v-1.793A3.587,3.587,0,0,1,379.587,296h8.967a3.587,3.587,0,0,1,3.587,3.587v1.793A3.587,3.587,0,0,1,388.554,304.967Z" transform="translate(-376 -296)"/></g></g><g transform="translate(14.348 66.359)"><path class="d" d="M101.663,371.587H65.793a1.793,1.793,0,1,1,0-3.587h35.87a1.793,1.793,0,1,1,0,3.587Z" transform="translate(-64 -368)"/></g><g transform="translate(57.391 66.359)"><path class="d" d="M273.935,371.587H257.794a1.793,1.793,0,1,1,0-3.587h16.141a1.793,1.793,0,0,1,0,3.587Z" transform="translate(-256 -368)"/></g><g transform="translate(63.719 14.348)"><path class="e" d="M303.005,153.935a10.761,10.761,0,1,1,0-14.35" transform="translate(-284.224 -136)"/></g><g transform="translate(21.522 14.348)"><path class="f" d="M117.522,148.554H99.587v-3.587h17.935V141.38H99.587V136H96v21.522h3.587v-5.38h17.935Z" transform="translate(-96 -136)"/></g><g transform="translate(78.973 15.592)"><circle class="b" cx="10.366" cy="10.366" r="10.366" transform="translate(0 0)"/></g></svg>