<svg xmlns="http://www.w3.org/2000/svg" width="74.25" height="99" viewBox="0 0 74.25 99"><defs><style>.a{fill:#0d2d42;}</style></defs><g transform="translate(-64)"><g transform="translate(64)"><path class="a" d="M136.187,37.125H130v-8.25a28.875,28.875,0,0,0-57.75,0v8.25H66.063A2.061,2.061,0,0,0,64,39.188V90.75A8.258,8.258,0,0,0,72.25,99H130a8.258,8.258,0,0,0,8.25-8.25V39.188A2.061,2.061,0,0,0,136.187,37.125ZM107.3,80.21a2.063,2.063,0,0,1-2.05,2.29H97a2.063,2.063,0,0,1-2.05-2.29l1.3-11.7a8.16,8.16,0,0,1-3.376-6.635,8.25,8.25,0,0,1,16.5,0A8.16,8.16,0,0,1,106,68.51Zm10.324-43.085h-33v-8.25a16.5,16.5,0,0,1,33,0Z" transform="translate(-64)"/></g></g></svg>