<svg xmlns="http://www.w3.org/2000/svg" width="101" height="101" viewBox="0 0 101 101"><defs><style>.a{fill:#0d2d42;}</style></defs><g transform="translate(0)"><g transform="translate(0 33.93)"><g transform="translate(0)"><path class="a" d="M65.906,223.774,56.534,214.4a3.976,3.976,0,0,0-5.623,0l-5.623,5.623a55.171,55.171,0,0,1-26.242-26.242l5.623-5.623a3.976,3.976,0,0,0,0-5.623L15.3,173.164a3.976,3.976,0,0,0-5.623,0l-7.5,7.5c-6.212,6.212,1.342,23.835,16.87,39.364S52.2,243.107,58.408,236.9l7.5-7.5A3.976,3.976,0,0,0,65.906,223.774Z" transform="translate(0 -171.999)"/></g></g><g transform="translate(39.848 0)"><path class="a" d="M254.03,7.646a33.923,33.923,0,0,0-42.908,0A24.871,24.871,0,0,0,202,26.631a24.871,24.871,0,0,0,9.122,18.985,30.208,30.208,0,0,0,3.342,2.484,50.435,50.435,0,0,1-7.533,8.916A49.852,49.852,0,0,0,224.369,52.3a35.053,35.053,0,0,0,8.207.965,32.872,32.872,0,0,0,21.454-7.646,24.871,24.871,0,0,0,9.122-18.985A24.871,24.871,0,0,0,254.03,7.646ZM218.768,30.576a3.945,3.945,0,1,1,3.945-3.945A3.945,3.945,0,0,1,218.768,30.576Zm13.809,0a3.945,3.945,0,1,1,3.945-3.945A3.945,3.945,0,0,1,232.576,30.576Zm13.809,0a3.945,3.945,0,1,1,3.945-3.945A3.945,3.945,0,0,1,246.385,30.576Z" transform="translate(-202 0)"/></g></g></svg>